<svg xmlns="http://www.w3.org/2000/svg" viewBox="0 0 100 100" width="100" height="100">
  <defs>
    <linearGradient id="gold" x1="0%" y1="0%" x2="100%" y2="100%">
      <stop offset="0%" style="stop-color:#FFD700"/>
      <stop offset="50%" style="stop-color:#C9A227"/>
      <stop offset="100%" style="stop-color:#8B6914"/>
    </linearGradient>
    <radialGradient id="face" cx="35%" cy="35%" r="65%">
      <stop offset="0%" style="stop-color:#FFF8DC"/>
      <stop offset="50%" style="stop-color:#C9A227"/>
      <stop offset="100%" style="stop-color:#8B6914"/>
    </radialGradient>
    <radialGradient id="center" cx="50%" cy="50%" r="50%">
      <stop offset="0%" style="stop-color:#FFFACD"/>
      <stop offset="100%" style="stop-color:#FFD700"/>
    </radialGradient>
  </defs>
  <!-- Coin -->
  <circle cx="50" cy="50" r="48" fill="#8B6914"/>
  <circle cx="50" cy="50" r="45" fill="url(#face)"/>
  <circle cx="50" cy="50" r="42" fill="none" stroke="#B8860B" stroke-width="1"/>
  <!-- Solomon's Seal - Triple Hexagram -->
  <g transform="translate(50,50)">
    <!-- Outer -->
    <polygon points="0,-28 24.2,14 -24.2,14" fill="none" stroke="url(#gold)" stroke-width="2.5"/>
    <polygon points="0,28 24.2,-14 -24.2,-14" fill="none" stroke="url(#gold)" stroke-width="2.5"/>
    <!-- Middle -->
    <polygon points="0,-20 17.3,10 -17.3,10" fill="none" stroke="#FFD700" stroke-width="1.5" opacity="0.7"/>
    <polygon points="0,20 17.3,-10 -17.3,-10" fill="none" stroke="#FFD700" stroke-width="1.5" opacity="0.7"/>
    <!-- Center glow -->
    <circle cx="0" cy="0" r="8" fill="url(#center)"/>
    <circle cx="0" cy="0" r="3" fill="#FFFACD"/>
  </g>
  <!-- 6 points -->
  <g fill="#FFD700">
    <circle cx="50" cy="18" r="3"/>
    <circle cx="77" cy="34" r="3"/>
    <circle cx="77" cy="66" r="3"/>
    <circle cx="50" cy="82" r="3"/>
    <circle cx="23" cy="66" r="3"/>
    <circle cx="23" cy="34" r="3"/>
  </g>
</svg>
